<?xml version="1.0" ?><svg enable-background="new 0 0 1080 1080" id="katman_1" version="1.1" viewBox="0 0 1080 1080" xml:space="preserve" xmlns="http://www.w3.org/2000/svg" xmlns:xlink="http://www.w3.org/1999/xlink"><g><path d="M190,892.1c-23.8-23.3-44.5-49-62.8-76.7c-35.8-54.1-60-113-72.8-176.6c-8-39.7-11.1-79.8-9-120.1   c5.7-110.1,43-208.3,113.3-293.2c70-84.5,158.7-140,265.3-166.5c46-11.4,92.8-15.9,140-13.6c108.6,5.4,205.5,42.2,290.3,110.4   c14,11.3,27.6,23.1,39.8,36.3c-0.4,2.1-2.2,3.3-3.6,4.7c-45.3,45.4-90.3,91.2-136.2,135.9c-37.7,36.8-74.5,74.4-112,111.3   c-1.5,1.5-2.9,3.3-5,4c-1.3,0.4-2.7,0.5-4.1,0.5c-15.2,0.3-30.3,0.1-45.5,0.1c-5.9,0-7.1-1.2-7.1-7.1c-0.1-27.7-0.2-55.3,0-83   c0-5,1-9.9,1.9-14.9c2.9-15.7,12.6-24.4,27.8-27.8c4.4-1,8.9-1.3,13.4-1.3c23.2,0,46.3,0,69.5,0c7.1,0,7.9-0.8,8.3-8   c0-0.5,0.1-1,0-1.5c-0.6-21.7,1.4-43.3,1.1-64.9c-0.1-8.5,1.1-16.9,0.9-25.4c-0.1-3.9-1.6-5.7-5.5-6c-26-2.3-52.1-4.6-78.3-3.9   c-28.3,0.8-56,5.2-81.8,18c-42.1,20.8-65.9,54.9-74.1,100.4c-1.5,8.5-2.3,17.1-2.2,25.9c0.1,29,0,58,0,87c0,1.7,0,3.3,0,5   c-0.2,6.2-1.2,7.3-7.3,7.5c-1.7,0.1-3.3,0-5,0c-21.5,0-43,0-64.5,0c-6.8,0-7.2,0.4-7.2,7c0,32.8,0,65.7,0,98.5   c0,7.1,0.3,7.4,7.8,7.5c22.3,0,44.7,0,67,0c8.5,0,9.2,0.8,9.2,9c0,16.2,0.2,32.3-0.1,48.5c0.1,1.4-0.1,2.8-0.4,4.1   c-0.6,2-2.2,3.3-3.6,4.7c-13.3,13.3-26.4,26.8-39.9,39.9c-57,54.9-111.8,111.9-168.4,167.2c-18.5,18-36.6,36.3-55.1,54.3   C192.8,890.4,191.8,891.8,190,892.1z" fill="#4A649F"/><path d="M1012.7,696c-9.5,29.1-22,56.9-36.5,83.9c-12.9,23.9-28.2,46.2-44.6,67.8c-7.6,10-16.2,19.4-24.6,28.8   c-5.6,6.3-11.3,12.6-17.4,18.4c-19.6,18.3-39.9,35.8-61.9,51.4c-25.3,18.1-52.2,33.4-80.3,46.5c-29.3,13.6-59.9,23.9-91.5,31.4   c-17.7,4.2-35.6,7.4-53.6,9.7c-9.2,1.2-18.7,1.7-28,2.5c-10.8,0.9-21.5,0.5-32.3,0.6c-1.4-1-2.2-2.4-3-3.9   c-10.1-19.9-20.5-39.6-30.8-59.4c-15.5-29.8-30.9-59.7-46.4-89.5c-1.1-2.1-3.1-4.5,0.8-6.1c2.8-0.7,5.6-0.5,8.5-0.5   c33.7,0,67.3,0,101,0c8.3,0,8.3,0,8.3-8.3c0-98.3,0-196.6,0-294.9c0-12.8,0-12.8,12.7-12.8c32.3,0,64.6,0,97,0c8.3,0,9.1-0.8,9.3-9   c0.9-27.4,2.3-54.9,3.9-82.3c0.4-6.6-0.2-13.3,1.4-19.9c0.9-3.5,2.9-2.5,4.8-1c4.9,3.7,9.6,7.7,14.4,11.6   c34.3,27.6,68.4,55.3,102.6,82.9c38.5,31.1,77,62.2,115.4,93.3c22.3,18,44.5,36.1,66.8,54C1010.5,692.4,1012.1,693.8,1012.7,696z" fill="#27375C"/><path d="M1012.7,696c-15.2-12.3-30.4-24.6-45.6-36.9c-15.3-12.4-30.6-24.9-45.9-37.3   c-14.2-11.5-28.4-22.9-42.6-34.4c-15-12.1-30-24.1-44.9-36.2c-16.8-13.5-33.6-27-50.3-40.6c-16.9-13.7-33.6-27.5-50.5-41.2   c-8.9-7.2-17.9-14.3-26.8-21.4c-1.6,0.5-3.2,0.6-4.9,0.6c-18.7,0-37.4,0-56.2-0.1c-2.4,0-5,0.4-7-1.7c1.2-1.4,2.4-2.8,3.7-4.1   c33-33,65.6-66.3,99.1-98.9c50.5-49.1,99.8-99.5,149.9-149c1.1-1,2.3-1.9,3.4-2.9c23.9,23.6,44.6,49.8,62.9,77.9   c36.1,55.7,60.2,116.1,72.2,181.4c6.8,37,9.2,74.3,7.6,111.8c-1.9,43.5-9.4,86.1-22.7,127.6C1013.5,692.4,1013.1,694.2,1012.7,696z   " fill="#374C7A"/><path d="M461,879.1c4.9,9.8,9.7,19.6,14.8,29.3c5.6,10.8,11.4,21.4,17,32.1c12.8,24.8,25.5,49.7,38.3,74.5   c3.7,7.2,8,14.2,10.9,21.8c-24,0.8-47.8-1.4-71.6-4.7c-39.1-5.3-76.9-15.5-113.6-30.1c-62.1-24.7-116.8-60.8-164.6-107.4   c-0.8-0.8-1.5-1.7-2.3-2.6c1.3-1.5,2.5-3.1,4-4.5c71.9-70.7,142.9-142.4,214.6-213.3c17-16.8,33.7-34.1,51.3-50.3   c2.6,2.6,1.7,5.9,1.7,9c0.1,53.6,0,107.2,0,160.8c0,26.3,0,52.6,0,78.9C461.6,874.8,461.8,877,461,879.1z" fill="#374C7B"/><path d="M460.2,619.9c-0.1-17.5-0.2-35-0.1-52.5c0-3.7-0.9-4.7-4.7-4.7c-24.7,0.2-49.3,0-74,0.2   c-4,0-5.4-0.7-5.4-5.1c0.2-35.3,0.2-70.7,0-106c0-4.1,1.3-4.9,5.1-4.8c24.5,0.2,49,0,73.5,0.2c4.2,0,5.6-0.8,5.5-5.4   c-0.2-32.2-0.6-64.3,0-96.5c0.6-33.1,10.5-63.2,31.8-89c20.9-25.2,48.2-39.8,79.6-47.2c24.2-5.7,48.7-6.8,73.4-5.6   c17.8,0.9,35.6,1.8,53.3,3.5c6.7,0.6,6.8,0.5,6.6,7.2c-0.7,31.1-1.5,62.3-2.2,93.4c0,1.3-0.4,2.7-0.3,4c0.3,3.5-1.2,4.4-4.6,4.3   c-21.8-0.2-43.7-0.2-65.5-0.2c-6.5,0-12.9-0.1-19.4,1c-18.7,3.1-28.5,13.9-30,33c-1.7,21.6-0.5,43.3-0.8,65   c-0.2,9.5,0.1,19-0.1,28.5c-0.1,3.2,0.9,3.9,4,3.9c16-0.1,32,0,48,0.1c0.4,2.6-1.8,3.8-3.2,5.2c-19.1,19.2-38,38.8-57.6,57.5   c-36.4,34.7-71.1,70.9-107,106.1C464.4,617.7,463.2,620.2,460.2,619.9z" fill="#FEFEFE"/><path d="M460.2,619.9c1.4-1.2,2.8-2.4,4.1-3.7c32.6-32.6,64.8-65.6,97.9-97.6c22.9-22.2,45.3-45,68.1-67.4   c1.3-1.3,2.5-2.7,3.7-4.1c1.4-0.1,2.7-0.2,4.1-0.3c20.8,0.1,41.6,0.1,62.4,0.2c1.9,0,4-0.8,5.7,1c-1.4,26.3-2.8,52.5-4.1,78.8   c-0.5,10.1-1,20.3-1.3,30.4c-0.1,4.3-1.5,5.8-6.1,5.7c-35.8-0.2-71.6-0.1-107.5-0.2c-4.1,0-5.2,1-5.2,5.2   c0.1,101.6,0.1,203.2,0.2,304.9c0,5-1.2,6.3-6.2,6.2c-36.3-0.2-72.6-0.1-109-0.1c-2,0-4,0.1-6,0.2c-1.9-1.8-1-4.1-1-6.1   c-0.1-81,0-162-0.1-242.9c0-2-0.1-4-0.1-6C460,622.7,460.1,621.3,460.2,619.9z" fill="#DCDCDC"/></g></svg>