<?xml version="1.0" ?><svg enable-background="new 0 0 1080 1080" id="katman_1" version="1.1" viewBox="0 0 1080 1080" xml:space="preserve" xmlns="http://www.w3.org/2000/svg" xmlns:xlink="http://www.w3.org/1999/xlink"><g><path d="M189.9,892.1c-23.9-23.4-44.7-49.3-63.1-77.1C91.2,761,67.1,702.3,54.3,639c-8.1-40-11.1-80.4-9-121.1   c5.2-100.5,37.2-191.8,97.6-272.4C214.3,150.1,308.1,88,423.7,58.9c46.1-11.6,93.1-16,140.4-13.6C668,50.4,761.4,84.5,844,147.6   c17.7,13.5,34.7,28.1,50,44.3c-0.4,2.1-2.2,3.3-3.5,4.7c-45.4,45.4-90.7,91-136.4,136.2c-9.6,9.5-19.3,18.8-29,28.2   c-1.1,1-2.1,2.2-3.6,2.6c-0.5,0.1-1,0.1-1.6,0c-17.8-8-36.2-14.5-55.2-19c-22.1-5.1-44.5-8.4-67.1-10.5   c-30.9-2.9-61.9-2.6-92.8-1.5c-46.4,1.6-92.3,7.9-135.7,25.8c-21.4,8.8-40.8,20.4-55.3,39c-2.3,3-5.4,2.9-8.6,2.9c-24,0-48,0-72,0   c-13.8,0-27.7,0-41.6,0c8.9,9.5,14.6,20.8,20.1,32.3c3.8,8,6.7,16.3,9.6,24.7c1.4,4,0.8,7.2-1.7,10.7   c-18.2,25.7-29.4,54.2-32.1,85.6c-3,36,3.1,70.4,20.8,102.3c20.9,37.7,51.4,64.6,91.3,80.8c8.8,3.6,17.9,6.4,27.2,8.3   c2.1,0.4,4.2,0.9,6.2,1.9c1.9,1.3,0.9,2.6,0,3.8c-1.1,1.5-2.5,2.7-3.8,4c-24.8,24.9-49.4,50-74.6,74.5   c-20.4,19.8-40.6,39.9-60.8,60C192.8,890.4,191.7,891.8,189.9,892.1z" fill="#589441"/><path d="M1035.9,570c1,7.8-0.2,15.6-1.1,23.3c-1.9,16.2-4.4,32.4-7.7,48.4c-6.4,31.3-15.7,61.7-28.1,91.2   c-13.2,31.4-29.4,61.2-48.8,89.3c-14.7,21.2-30.9,41.2-48.6,60c-27.9,29.6-59,55.1-93.1,77.1c-30.6,19.7-63.1,35.7-97.3,48.2   c-26.7,9.8-54.1,17-82,22.1c-13.6,2.5-27.5,4-41.3,5.5c-24.9,2.8-49.8,2-74.7,1.6c-14.8-0.3-29.7-1.9-44.4-4.5   c-6-1.1-12.1-1.2-17.9-3.3c-3.1-1.9-3.7-5.4-4.9-8.4c-6.2-15.5-12.6-30.9-18.8-46.3c-27.9-68.7-56-137.2-83.7-206   c-1.2-3.1-2.7-6.1-3.9-9.2c-2.2-5.8-1.6-7.1,4.6-8.9c1.3-0.4,2.6-0.6,3.9-1c7.6-0.9,15.3-0.4,23-0.4c32.1-0.1,61.4-9.5,88.4-26.3   c14.6-9.1,28-19.9,39.2-33c3.2-3.7,4.7-3.6,8.1,1c10.8,15,21.5,30.1,32.3,45.1c0.5,0.7,0.9,1.4,1.4,2.1c2.9,3.9,3,3.9,5.6-0.4   c9.4-15.9,18.8-31.9,28.3-47.7c3.5-5.9,5-5.9,9.5-0.9c30.9,34.9,69.6,55.2,115.8,59.7c51,5,96.9-9.3,135.6-43.2   c32.1-28.1,52.4-63.4,58.7-105.7c7.5-50-3.2-96.1-34.2-136.7c-3.2-4.2-3.6-7.6-1.8-12.3c6.5-16.7,13.4-33,24.9-47.1   c1.3-1.5,2.4-3.2,4.5-3.8c2.2-0.2,3.2,1.6,4.3,2.9c10.1,11.3,19.9,22.8,29.9,34.3c12.1,13.9,24.3,27.9,36.3,41.9   c16.3,19,32.7,37.7,49,56.7c8.7,10.1,17.6,20,26.1,30.2C1034.1,566.9,1035.1,568.4,1035.9,570z" fill="#27431D"/><path d="M1035.9,570c-6.6-5.9-11.7-13.1-17.6-19.6c-7.6-8.3-14.7-17.1-22.1-25.6c-12.2-14.2-24.5-28.4-36.7-42.6   c-9.2-10.7-18.5-21.3-27.8-31.9c-12.5-14.4-24.9-28.9-37.4-43.3c-2.1-2.4-4.3-4.7-6.4-7c-4.6,0.7-9.3,0.5-13.9,0.5   c-31.9,0-63.9-0.1-95.8,0.1c-7.9,0-14.4-1.7-19.7-8.3c-8.7-10.7-20.1-18.4-32.1-25c-1.8-1-4.2-1.5-4.4-4.2   c8.8-9.5,17.8-18.9,27.6-27.4c1.4-1.2,2.7-2.5,4-3.8c45.4-45.3,90.7-90.6,136.1-136c1.4-1.4,3-2.7,4.4-4   c23.6,23.4,44.2,49.2,62.3,77c35.5,54.3,59.4,113.3,71.8,177.1c7.4,37.9,9.7,76.1,8.7,114.6C1036.8,563.7,1036.2,566.9,1035.9,570z   " fill="#416E30"/><path d="M348,750.1c-9.4,3.5-9.3,3.5-5.5,12.9c15.9,39,31.7,78.1,47.6,117.1c17.2,42.3,34.5,84.5,51.8,126.7   c3,7.4,6,14.7,9.1,22.1c-25.8-4.3-51-11.3-75.7-20c-69.5-24.5-130.3-62.9-183-114.3c-0.8-0.8-1.5-1.7-2.3-2.6   c3.8-4,7.5-8,11.4-11.9c42.9-42.6,85.8-85.1,128.6-127.7c1.4-1.4,2.7-2.9,4.1-4.4c0.5-0.8,1.3-1,2.2-1   C340.2,747.9,344.6,747.1,348,750.1z" fill="#416E30"/><path d="M348,750.1c-3.9-1.1-8.2-0.6-12-2.2c-0.4-2.6,1.8-3.8,3.2-5.2c9.2-9.5,18.8-18.6,27.9-28.2   c0.4-0.3,0.9-0.4,1.4-0.5c31.9-1.5,60.8-11.3,85.9-31.4c29.2-23.4,46.6-53.8,52.5-90.8c0.7-4.1,0.8-8.3,1.3-12.4   c0.6-1.6,0.6-3.4,1.2-5c7.1-8.8,15.8-16,23.4-24.2c3.1-3.3,7.1-6,8.7-10.7c1.2-0.6,2.4-1.3,3.5-2.1c1.4-0.6,2.4-1.8,3.5-2.8   c15.8-15.5,30.9-31.7,47.5-46.4c1.5-1.3,2.6-4.7,5.8-2.5c-2.5,6.6-7.1,12-10.2,18.2c-9.3,18.2-14.8,37.3-16.1,57.8   c-1.4,21.9,1.6,43,10.2,63c20.7,47.9,56.8,77.7,108.2,86.7c49.6,8.6,92.7-6.4,127.8-42.4c22.6-23.2,35.2-51.5,38.3-83.9   c3.8-39.5-6.7-74.7-31.9-105.1c-23.3-28.2-53.3-45.5-89.8-50.5c-36.3-5-69.8,2.7-100.4,22.9c-1.5,1-2.8,2.4-4.9,2.3   c-2.6-2.7,0.5-3.8,1.6-5c7.1-7.4,14.5-14.6,21.7-21.9c8.3-8.4,16.8-16.4,24.8-25.1c1-0.7,2.2-1.1,3.4-1.4   c9.9-0.6,19.7-2.6,30.2-0.4c-5.3-5.5-11.5-8.5-16.6-13c-0.3-0.4-0.4-0.9-0.3-1.4c7.7-7.8,15.3-15.7,23.3-23.2c0.3,0,0.7-0.1,1-0.1   c10.4,6.2,21.1,11.9,30,20.3c3.1,3,6.6,5.8,8.9,9.3c3.4,5.2,8.2,6.1,13.7,6.1c36.6,0,73.2,0,109.8,0.1c1.1,0,3.1-1.6,3.5,1.1   c-7.5,6.8-12.3,15.5-17.1,24.3c-5.1,9.5-8.9,19.6-12.8,29.6c-0.9,2.5-0.5,4,1.2,6.1c21.3,27.1,34.4,58,37.5,92.3   c9.2,102.1-60.8,180.5-146.2,195.2c-66.2,11.4-123.1-8.4-168.6-58.9c-0.8-0.9-1.5-1.8-2.3-2.6c-0.2-0.2-0.5-0.4-1.2-1   c-11.6,19.6-23.2,39.1-35.1,59.1c-13.7-19.2-27.1-37.9-40.8-57c-6.4,7.2-12.9,13.9-20.1,20c-27.3,23.2-58.5,37.4-94.1,42.1   C375,750.9,361.5,749.4,348,750.1z" fill="#DCDCDC"/><path d="M721,363.1c0,2.1-1.7,3.1-3,4.4c-5.2,5.3-10.5,10.5-15.8,15.8c-1.3,1.3-2.5,2.7-4.5,2.9   c-2,1-3.5-0.3-5.1-1.2c-30.9-17.4-64.5-25.7-99.3-29.8c-16.9-2-33.9-2.8-50.8-2.6c-29.3,0.2-58.6,2-87.2,9.1   c-30.2,7.4-58.8,18.5-83.8,39.1c14.3-2.3,27.7-0.5,41,2c35.1,6.7,64.4,23.6,87.8,50.7c19.6,22.7,32.3,49.2,41.2,77.6   c0.8,2.4,2.2,5,0.6,7.7c-0.3,1.7,0,3.6-1.5,5.1c-10.3,10-20.5,20.1-30.7,30.2c-2.5-4.6-1.8-9.7-2.2-14.6   c-2.3-28.8-12.2-54.5-30.1-77c-19.7-24.7-44.8-41.6-75.4-49.7c-31-8.2-61.6-6.8-91,5.9c-49.1,21.2-79.1,58.6-87.3,111.6   c-6.4,41.3,4.5,78.7,30.9,111.2c23.1,28.3,53.1,44.9,89.1,50.7c5.7,0.9,11.5,1.7,17.4,1.6c1.9,0,4.1-0.4,5.5,1.5   c-0.1,2.3-2,3.3-3.4,4.7c-9.2,9.4-18.4,18.7-27.6,28c-0.7,0.1-1.3,0.2-2,0.2C254,733,198.8,670.3,188,599.9   c-7.5-48.7,2.7-93.5,31.4-133.8c1.1-1.5,2.7-2.7,1.8-5.2c-6.4-19.3-13.8-38.1-26.2-54.5c-1.8-2.4-3.7-4.6-6-7.4   c1.9-0.1,3.5-0.2,5-0.2c37.7,0,75.3,0,113,0.1c3.1,0,5.1-0.8,7-3.4c9-12.4,21.2-21,34.4-28.4c26.1-14.6,54.6-22.4,83.7-28   c47.6-9.2,95.7-9.3,143.8-7.6c42.3,1.5,84.1,7.6,124.1,22.5C707.2,356.6,714.3,359.4,721,363.1z" fill="#FEFEFE"/><path d="M632,453.9c3.3-0.5,5.4-3.1,8-4.7c84.6-54,197.8-6.9,218.9,91.1c17,78.9-33.9,156.1-113.3,171.9   c-78.9,15.7-155.4-36.4-169.7-115.6c-7.1-39.3,1.1-75.6,23.6-108.6c0.6-0.9,1.7-1.6,1.5-3c1.1-4.6,5-7.3,7.8-10.6   c6.4-7.4,13.6-14,21.5-20C630.7,454,631.3,453.7,632,453.9z" fill="#416E30"/><path d="M367,715.2c-34.1-0.2-64.9-10.2-91.5-31.7c-31.5-25.4-49.5-58.4-53.7-98.8   c-7.4-71.9,40.7-137.3,109.6-154.3c79.5-19.6,161.4,33.2,175.8,113.9c1.8,9.9,2.3,19.8,2.8,29.8c-0.3,1.7-0.6,3.5-0.9,5.2   c-0.8-0.4-1.3-1.8-2.5-0.7c-0.8,0.8-1.6,1.6-2.5,2.5c-26.8,26.8-53.4,53.9-80.5,80.3c-17.1,16.7-34.2,33.5-51.2,50.4   c-1.3,1.3-2.7,2.4-4.4,3.1C367.7,714.9,367.3,715.1,367,715.2z" fill="#589441"/><path d="M542.2,538.8c-15.2-53.3-41.7-98.2-94-123.2c-23.7-11.3-48.9-15.9-75.2-13.7c-1.4,0.1-2.9,0-4.9,0   c27-23.4,58.7-35.5,92.5-42.8c39.5-8.6,79.6-9,119.8-6.3c33.8,2.3,66.5,9.1,97.4,23.2c6.8,3.1,13.3,6.8,19.9,10.2   c0.1,0.3,0.2,0.5,0.3,0.8c-2.3,4.7-6.9,7.4-10.1,11.3c-1.2,1.4-2.9,2.2-3.7,3.9c-1.1,0.3-2.2,0.6-3.2,1c-1.2,1.2-2.7,1.8-4.4,2.1   c-30.5,5-56.6,18.5-78.7,40.1c-25,24.4-40,54.5-50.4,87.2c-0.6,1.9-0.7,4-2.6,5.2C543.9,538,544.1,541.2,542.2,538.8z" fill="#589441"/><path d="M368.1,714.8c14.9-15.2,29.5-30.7,45.4-44.9c1.1-1,2.1-2.1,3.2-3.2c29.1-29.1,58.2-58.2,87.3-87.3   c1.3-1.3,2.3-2.8,3.5-4.3c2,1.4,1.1,2.9,1.7,4c-1.9,37.8-17.1,69.5-44,95.7c-22.5,21.8-49.7,34.6-80.7,38.9   C379.1,714.5,373.6,715.5,368.1,714.8z" fill="#416E30"/><path d="M544.8,537.8c15.8-54.7,43.6-100,98-124.2c12.1-5.4,24.9-8.8,38.1-10.4c-0.1,2.3-2,3.3-3.4,4.7   c-15.2,15.4-30.4,30.7-45.6,46c-9,8.2-18.6,16-26.2,25.6c-1.5,1.9-3.3,3.7-4.9,5.5c-18.1,16-34.8,33.6-52,50.5   C547.8,536.5,547.3,539,544.8,537.8z" fill="#FEFEFE"/><path d="M684.2,402.2c-1-0.7-0.5-1.4,0.1-2c4.6-4.4,9.1-8.8,13.7-13.2c7.3,3.7,13.4,8.9,19.5,14.8   C706.3,400.2,695.3,401.7,684.2,402.2z" fill="#416E31"/><path d="M804.1,571c-0.1,48-38.8,86.3-86.9,86.2c-47.9-0.2-86.3-38.9-86.2-87c0.1-47.5,39.4-86.3,87.3-86.1   C765.7,484.2,804.2,523.3,804.1,571z" fill="#DCDCDC"/><path d="M365.1,657.1c-48.1-0.1-86.4-38.8-86.2-86.9c0.2-47.9,39.1-86.3,87.1-86.1c47.5,0.2,86,39.5,85.9,87.6   C451.8,618.7,412.7,657.2,365.1,657.1z" fill="#FEFEFE"/><path d="M777.3,570.9c-0.1,33.2-26.5,59.4-59.7,59.4c-33.6-0.1-59.7-26.6-59.6-60.5c0.1-32.3,27.2-58.9,60-58.8   C750.9,511.1,777.4,537.8,777.3,570.9z" fill="#416E30"/><path d="M365.5,630.4c-33.2,0.1-59.6-26.2-59.7-59.4c-0.1-33.2,26.2-59.9,59.2-60c33.2-0.1,60.1,26.6,60.1,59.8   C425.1,603.8,398.6,630.3,365.5,630.4z" fill="#589441"/><path d="M747,570.5c0,16.5-12.9,29.5-29.3,29.5c-16.2,0-29.7-13.3-29.6-29.4c0-15.9,13.8-29.6,29.8-29.5   C733.8,541.2,747,554.6,747,570.5z" fill="#DCDCDC"/><path d="M365.1,600.1c-16.3-0.1-29.2-13.3-29.1-29.7c0.1-15.9,13.5-29.2,29.4-29.2c16,0,29.6,13.7,29.5,29.7   C394.8,587,381.4,600.1,365.1,600.1z" fill="#FEFEFE"/></g></svg>