<?xml version="1.0" ?><svg enable-background="new 0 0 1080 1080" id="katman_1" version="1.1" viewBox="0 0 1080 1080" xml:space="preserve" xmlns="http://www.w3.org/2000/svg" xmlns:xlink="http://www.w3.org/1999/xlink"><g><path d="M44.2,545.1c0-3,0-6.1,0-9.1c0.6-5.9,0.4-11.9,0.1-17.8c-0.5-3.5,0.8-6.8,0.9-10.2c0.6-1.9,0.5-3.9,0.1-5.9   c0.3-2.4,0.6-4.8,0.9-7.1c0.7-1.6,0.4-3.2,0.2-4.8c4.8-47.8,16.3-93.9,34.6-138.4c19.5-47.4,45.8-90.8,78.7-130   C207.8,164.3,266,120,334,88.7c37.5-17.3,76.6-29.6,117.3-36.8c16.8-3,33.7-5.2,50.7-6.6c2,0.4,3.9,0.5,5.9-0.1   c3.7-0.2,7.4-1.5,11.2-0.9c5.3,0.3,10.6,0.5,15.8-0.1c3.7,0,7.4,0,11.1,0c5.3,0.6,10.6,0.4,15.8,0.1c3.8-0.6,7.4,0.7,11.2,0.9   c1.9,0.6,3.9,0.5,5.9,0.1c84.4,6.6,162,33.1,232.9,79.2c27.7,18,53.2,38.7,76.9,61.8c1.2,1.2,2.2,2.4,3.3,3.7   c1.2,1.9-0.1,3.1-1.2,4.4c-1.1,1.3-2.3,2.4-3.5,3.6c-34.2,34.2-68.5,68.5-102.7,102.7c-3.2,3.2-6.3,6.4-9.4,9.6   c-1.7,1.1-3.5,1.1-5.3,0.5c-5.3-3.8-9.4-8.9-14.5-12.9c-19.8-15.3-41.9-24.8-66.7-28.4c-40.8-5.9-76.6,5.7-107.6,31.6   c-28.4,23.7-44.3,54.7-47.9,91.8c-1.3,12.8-0.3,25.2,1.6,37.7c0.3,1.7,0.6,3.3-0.1,4.9c-1.2,1.9-3.2,1.8-5.1,1.9   c-21.7-0.8-43-4.3-64.2-9.1c-30.2-6.9-59.2-17.3-86.8-31.2c-29-14.5-55.8-32.5-80.5-53.6c-16.3-13.9-31.1-29.1-45-45.3   c-3.2-3.8-3.5-3.8-5.9,0.9c-6.9,13.6-11.8,28-13.7,43.1c-5.3,40.8,5.1,77.3,31.5,109c6.3,7.5,13.5,14.3,21.4,20.2   c0.9,0.7,1.9,1.4,2.8,2.2c1,0.9,2.4,1.8,1.9,3.2c-0.6,1.7-2.5,1.4-3.9,1.3c-15.5-1.4-30.6-4.5-44.9-11c-3.3-1.5-6.7-2.7-10.6-4.8   c-0.2,4.9-0.4,9.2,0.1,13.5c3.7,33.1,17.5,61.3,41.1,84.6c17.1,16.8,37.5,28,60.7,34.3c2,0.5,5.4,0.7,5.3,2.8   c-0.1,2.6-3.5,2.4-5.7,2.9c-15.8,3.3-31.7,4.1-47.7,1.7c-5.1-0.8-5.4-0.3-3.5,4.4c12.1,30.3,32,53.9,60.3,70.3   c12.7,7.3,26.2,12.2,40.5,15.4c1.2,0.4,2.4,0.8,3.4,1.6c1,2.9-1.6,4.1-3.1,5.6c-10,10.3-20.5,20.1-30.2,30.7   c-2.8,2.7-6.7,3.4-10,5.1c-25.9,10.7-52.8,17.3-80.7,20c-18.1,1.7-36.2,2.1-54.6-0.4c24.2,15.4,49.7,27.3,76.3,37.2   c0.7,0.4,1.3,0.9,1.6,1.6c0.2,1.3-0.2,2.5-0.7,3.7c-7,8.1-14.7,15.4-22.4,22.8c-23.1,22.2-45.8,44.9-68.6,67.6   c-1.5,1.5-2.8,4.1-5.8,2.6c-17.9-17.3-33.7-36.3-48.4-56.3c-40.1-54.8-67.8-115.4-83.2-181.6c-4.7-20.2-8-40.6-10-61.2   c0.2-1.6,0.5-3.2-0.2-4.8c-0.3-2.4-0.6-4.8-0.9-7.1c0.4-2,0.5-3.9-0.1-5.9c-0.1-3.4-1.4-6.7-0.9-10.2   C44.6,556.9,44.8,551,44.2,545.1z" fill="#55ABED"/><path d="M284,797c0.1-1.1,0-2.3,1.1-3.1c1.9-1.5,3.9-0.5,5.7,0.2c24.4,8.4,49.4,14,74.9,17.1   c10.4,1.3,20.8,2.7,31.3,2.5c6-0.1,11.9,1.2,17.9,1.1c50.7-1,100.1-8.6,147.6-27.2c40.7-16,77.4-38.5,110.2-67.5   c41.8-37,74.1-81,97.5-131.5c19-41,31-83.9,35.7-128.9c1.7-16.3,2.1-32.6,1.7-48.9c-0.1-5.5,1.6-9.2,6.1-12.6   c23.6-17.7,43.7-38.9,60.8-63.8c-16.8,7.2-33.6,12.4-50.9,16.1c-6.2,1.3-12.4,2.3-18.7,3.3c-1.6,0.3-3.8,0.8-4.6-0.9   c-1-2.2,1.5-3,2.8-4c17.6-12,32-27.1,42.8-45.4c3.9-6.6,7.2-13.5,9.8-20.8c0.6-1.7,1-3.5,2.5-4.8c2.7-1.2,4.4,0.7,6.3,2   c37.6,25.8,75.2,51.6,112.9,77.3c9.5,6.5,19,12.8,28.4,19.5c1.7,1.2,3,2.5,4.2,4.2c4.5,8.2,6.2,17.5,8.7,26.3   c5.2,18.4,9.2,37.1,12,56c2,13.6,3.4,27.4,4.4,41.2c1.4,19.5,0.9,38.9,0.6,58.3c-0.2,16.2-2.4,32.4-4.6,48.5   c-2.8,20.3-7,40.2-12.3,59.9c-5.7,21.3-13.1,42-21.6,62.3c-5.8,13.8-12.4,27.1-19.3,40.3c-12.2,23.2-26.5,45.1-42.3,66   c-12,15.8-25,30.6-38.7,44.9c-21.4,22.5-45.1,42.2-70.2,60.4c-25.3,18.3-52.4,33.6-80.7,46.7c-29.2,13.5-59.6,23.8-91,31.2   c-17.8,4.2-35.8,7.4-54,9.9c-30,4-60.2,3.9-90.4,2.8c-18.8-0.7-37.5-3.3-56.1-6.5c-26.4-4.6-52.4-11-77.7-19.8   c-31.6-10.9-61.9-24.8-90.6-42.2c-6.5-4-13.3-7.5-19.4-12.2c-1.3-1.9-1.3-4-1-6.2c4.5-41.8,9.3-83.5,13.7-125.3   c0.7-6.3,1.5-12.5,2.1-18.8C282,801.9,282.6,799.3,284,797z" fill="#3F86BD"/><path d="M1010.1,380.9c-35.7-24.5-71.5-49-107.2-73.4c-14.5-9.9-29.2-19.7-43.7-29.5   c-23.9,14.3-49.4,24.6-76.4,31.1c-2.5,0.6-5.1,1.9-7.7,0c0.7-2,2.4-3.1,3.8-4.5c36.5-36.5,73.1-73.1,109.6-109.6   c1.5-1.5,3.5-2.6,3.6-5.2c17.7,17.2,33.5,36.1,48.1,55.9c30,40.8,53.1,85.3,69.7,133.2C1010,379.6,1010,380.3,1010.1,380.9z" fill="#50A0DE"/><path d="M284,797c-1.1,10.8-2.1,21.7-3.3,32.5c-1.2,10.8-2.4,21.6-3.7,32.5c-1.6,13.9-3.2,27.9-4.7,41.8   c-1.2,10.5-2.2,21-3.3,31.5c-0.7,6.6-1.3,13.1-2,19.7c-27.1-18.1-52.5-38.4-75.8-61.3c-1.2-1.2-2.2-2.4-3.3-3.7   c1.9,0,2.9-1.4,4.1-2.5c3.2-3.2,6.3-6.4,9.5-9.5c26.6-26.3,53.2-52.5,79.8-78.8C282.1,798.4,283.1,797.7,284,797z" fill="#50A0DE"/><path d="M44.3,518.1c1.1,6,1.3,11.9-0.1,17.8C44.2,530,44.2,524,44.3,518.1z" fill="#53A9E5"/><path d="M44.2,545.1c1.4,5.9,1.2,11.9,0.1,17.8C44.2,556.9,44.2,551,44.2,545.1z" fill="#53A9E5"/><path d="M534.9,44.2c-5.3,1.4-10.6,1.2-15.8,0.1C524.4,44.2,529.7,44.2,534.9,44.2z" fill="#53A9E5"/><path d="M561.9,44.3c-5.3,1.1-10.6,1.3-15.8-0.1C551.3,44.2,556.6,44.2,561.9,44.3z" fill="#53A9E5"/><path d="M507.9,45.2c-1.9,1.3-3.9,1.2-5.9,0.1C504,45.2,506,45.2,507.9,45.2z" fill="#53A9E4"/><path d="M578.9,45.3c-2,1.1-3.9,1.2-5.9-0.1C575,45.2,577,45.2,578.9,45.3z" fill="#53A9E4"/><path d="M45.3,502.1c1.1,2,1.2,3.9-0.1,5.9C45.2,506,45.2,504,45.3,502.1z" fill="#53A9E4"/><path d="M45.2,573.1c1.3,1.9,1.2,3.9,0.1,5.9C45.2,577,45.2,575,45.2,573.1z" fill="#53A9E4"/><path d="M46.3,490.1c1,1.7,1.1,3.3-0.2,4.8C46.2,493.3,46.3,491.7,46.3,490.1z" fill="#54AAE3"/><path d="M46.2,586c1.3,1.6,1.2,3.2,0.2,4.8C46.3,589.3,46.2,587.7,46.2,586z" fill="#54AAE3"/><path d="M775,309.2c17.8-3,34.7-8.9,51.2-15.9c10-4.2,19.6-9.1,29-14.4c1.1-0.6,2.1-2.4,3.8-0.9   c-5.9,16.2-13.7,31.4-24.9,44.6c-9.7,11.5-20.7,21.6-33.4,29.9c26.6-3,51.9-10.2,77.3-21.2c-18.5,27.4-40.1,50.3-65.7,69.3   c-2.8,2-3.7,4.1-3.6,7.4c1.6,48.7-6,96.1-21.9,142.1c-17,49.1-42,93.7-76,133.1C655,747.9,585.1,789.3,501.4,806.9   c-22.8,4.8-45.9,7.2-69.2,8.3c-49.6,2.2-97.7-4.8-144.6-20.8c-0.8-0.3-1.6-0.3-2.4-0.5c-0.4-0.3-0.7-0.7-1.1-1   c-0.4-2.2,1.3-3.3,2.5-4.5c17-17.5,35.3-33.6,52.2-51.2c1.3-1.3,3-2,4.3-3.4c3-1.5,6-3.1,9.1-4.6c6.8-5.5,15.2-8.3,22.6-12.7   c9.6-5.7,19-11.8,28-18.7c-5.5-1.8-11.6-0.2-16.6-3.5c-1-0.3-2-0.7-3.1-1c1.7-2.5,4.1-4.3,6.2-6.4c26.6-26.6,52.9-53.6,79.9-79.8   c58.3-56.6,114.7-115.1,172.9-171.8c41.1-40.1,81.3-81.2,122.3-121.4c1.7-1.6,2.8-4.3,6-3.7C771.8,309.9,773.6,310.5,775,309.2z" fill="#E0E0E0"/><path d="M770.2,309.9c-1.5,1.3-3.1,2.5-4.5,3.9c-38.2,38.1-75.9,76.7-114.6,114.4   c-56.8,55.3-111.9,112.3-168.7,167.6c-32,31.1-63.2,63-95,94.3c-1.3,1.3-2.4,2.8-4.5,3c-20.2-3.6-38.3-12-54.7-24   c-22.3-16.3-38-37.5-48-63.1c-0.7-1.8-1.2-3.8-2-6.4c20.5,3.6,40.5,3.3,59.9-1.8c-68-20.4-104.7-65.7-109.2-138.5   c20,10.7,40.1,16.5,62.7,17.7c-30-21.5-49.5-49.1-57.4-84.2c-7.9-35.2-2.7-68.7,15.2-100.5c6.1,6.8,11.9,13.4,17.9,19.8   c29.6,32.1,63.9,58.2,102.3,78.9c39.6,21.3,81.7,35,126.1,41.9c11,1.7,22.1,3.2,33.2,3.3c1.9,0.1,4.2,1.9,5.3-1.2   c-5.4-26.4-4.2-52.4,5.7-77.5c19.1-48.5,54.3-78.4,105.6-88.3c47.1-9.1,87.5,5.6,122.1,37.9C768.5,307.9,769.3,308.9,770.2,309.9z" fill="#FEFEFE"/><path d="M343,733.7c-0.5,1.9-2.1,2.9-3.4,4.2c-17.3,17-34.6,33.9-51.9,50.9c-1.3,1.3-2.5,2.7-3.7,4   c-21.4-6.9-41.6-16.6-61.2-27.5c-6.5-3.6-12.8-7.5-19-12.1c5.1,0.3,10.3,0.6,15.4,0.9c41.1,2.8,80.7-3.9,119-18.8   C339.8,734.8,341.4,734.3,343,733.7z" fill="#FEFEFE"/><path d="M386,694.1c3.3,0.4,6.6,0.4,9.9,1.1c3.1,0.7,6.3,0.4,10.6,1c-17.3,13.5-35,24.5-54.4,32.8   c7.1-8.6,15.6-15.8,23.2-23.9C378.8,701.5,382.4,697.8,386,694.1z" fill="#50A0DE"/><path d="M534.2,434.9c-0.9,4.1-3.4,1.5-5.3,1.2C530.6,435.5,532.8,436.7,534.2,434.9z" fill="#99CDF4"/></g></svg>