<?xml version="1.0" ?><svg enable-background="new 0 0 1080 1080" id="katman_1" version="1.1" viewBox="0 0 1080 1080" xml:space="preserve" xmlns="http://www.w3.org/2000/svg" xmlns:xlink="http://www.w3.org/1999/xlink"><g><path d="M189.9,892.1c-23.6-23.1-44.3-48.8-62.5-76.3c-36-54.3-60.3-113.4-73.2-177.3c-7.9-39.3-11-79.1-9-119.1   c5.4-108.7,41.8-205.9,110.5-290.5c68.6-84.4,156-140.4,261.2-168.2c26.3-7,53.2-11.3,80.3-13.8c27.5-2.5,54.9-2.8,82.3-0.6   C665.2,53,744,80,815.6,127.3c27.5,18.1,52.8,38.9,76.1,62.1c0.8,0.8,2,1.3,2,2.6c-0.5,2.3-2.3,3.6-3.8,5.1   c-45.2,45.2-90.1,90.7-135.7,135.5c-17.7,17.4-35.2,34.9-52.9,52.2c-1,0.9-1.9,1.9-3,2.6c-2,1.3-3.1,0.6-3.6-1.5   c-0.5-29.1-0.1-58.2-0.2-87.3c0-2.3,0.5-4.7-1.1-6.7c-0.8-0.9-1.9-1.3-3.1-1.3c-7.5-0.2-15.1-0.2-22.6,0c-0.8,0-1.6,0.4-2.2,1   c-1.8,2-1.1,4.4-1.1,6.7c0,36.9,0,73.8,0,110.7c0,2.7,0.1,5.3-0.1,8c-0.3,2.5-2.1,4.1-3.7,5.7c-4.8,4.8-9.7,9.6-14.4,14.5   c-0.7,0.5-1.6,0.8-2.5,0.8c-5-0.2-7.4-3.2-8.5-7.7c-0.8-3.4-0.8-6.9-0.8-10.4c0-40,0-79.9,0-119.9c0-1.8,0-3.7-0.1-5.5   c-0.1-2.4-1.2-3.8-3.6-3.9c-7.2-0.2-14.3-0.2-21.5,0c-2.5,0-3.5,1.4-3.6,3.8c-0.1,1.7-0.1,3.3-0.1,5c0,42.6,0,85.2,0,127.9   c0,6,0.9,11.9,1.5,17.9c0.7,7,3.7,12.7,9.3,17.1c1.6,1.7,1.1,3.4-0.3,4.8c-8.8,9.1-17.6,18-26.8,26.7c-0.9,0.8-2,1.2-3.1,1.4   c-33.6,0.4-67.1,0.1-100.7,0.2c-2.6,0-5.3-0.2-7.9,0.6c-3.8,0.7-7.6,0.5-11.5,0.5c-39.6-0.1-79.2,2.2-118.6,6.2   c-28.5,2.9-50.6,23.2-56.7,51.4c-4.2,19.6-5.8,39.4-7.7,59.3c-2.5,26.8-1.3,53.6-1.6,80.3c-0.4,31.5,2.4,62.8,7.6,93.9   c0.1,1.9,0.6,3.7,0.5,5.6c-0.6,2.2-2.4,3.5-3.9,5c-12.3,12.4-24.3,25.1-37.1,37c-18.8,17.4-36.4,36-54.7,53.9   C192.8,890.4,191.7,891.8,189.9,892.1z" fill="#DC2C28"/><path d="M587.9,494c8.5-8.6,16.9-17.2,25.4-25.9c1.3-1.3,2.5-2.7,3.7-4c0.4-0.4,0.8-0.6,1.3-0.6   c15.1,3.8,26.7-2.6,37.2-12.4c2.2-2,3.6-5.3,7.3-5.2c2,2,1.1,4.6,1.4,7c0.3,2.9-0.9,5.9,1.1,8.5c3.1,1.9,6.5,0.9,9.7,1   c4.5,0.2,8.9,0.1,13.4,0c2,0,4,0.2,5.4-1.7c1.1-2,0.6-4.3,0.6-6.4c0-18,0-36,0-54c0-1.3-0.1-2.7,0-4c0.1-2.3-0.8-5.2,1.5-6.5   c2.6-1.5,4.7,0.9,6.7,2.2c7.3,4.7,14.7,9.2,22,13.9c38.8,24.7,77.7,49.2,116.5,73.8c31.9,20.2,63.9,40.5,95.8,60.7   c30.4,19.3,60.8,38.5,91.2,57.7c1.7,1.1,3.5,2,4.6,3.8c0.8,7.2-1.1,14.2-2.3,21.1c-2.8,16.2-6.3,32.4-10.7,48.3   c-5.2,19.1-11.6,37.9-19,56.3c-6.5,16.1-14,31.6-22.1,47c-12.3,23.4-26.7,45.5-42.7,66.6c-11.9,15.7-25,30.4-38.6,44.7   c-19.4,20.4-40.7,38.4-63.2,55.2c-27.2,20.5-56.5,37.3-87.3,51.6c-28,13-57.1,22.9-87.1,30.3c-19.1,4.7-38.4,8.2-57.8,10.7   c-8.9,1.2-18,1.7-27,2.4c-20.3,1.6-40.5,0.8-60.8,0.6c-12.9-0.2-25.7-2-38.6-3.6c-22.6-2.8-44.8-7.4-66.7-13.2   c-19-5.1-37.7-11.3-55.8-18.9c-11.3-4.7-22.8-9.1-33.4-15.4c-2.7-2.5-2.7-6-3.2-9.2c-6-39.6-12.3-79.2-18.3-118.8   c-2.1-13.6-4.2-27.3-6.3-40.9c-0.4-2.4-1.6-5.3,1.8-6.9c2,0.8,2.9,2.7,3.9,4.4c12,19.8,29.4,30.5,52.5,32.6   c23.7,2.1,47.4,4.1,71.2,4.9c21.3,0.8,42.6,0.8,63.9,2c28.6,1.6,57.3,0.7,85.9,0.7c25.5,0,50.9-1.5,76.3-2.2   c27.4-0.7,54.8-2.8,82.2-5.6c26.7-2.7,49.3-20.9,56.3-46.9c5-18.6,7-37.6,8.4-56.7c1-14.1,1.6-28.2,2.4-42.3   c1.1-18.9,1.4-38-0.3-56.9c-1.2-12.9-1.1-25.9-2.1-38.9c-1.5-19-3.4-37.8-8.6-56.2c-7.2-25.6-29.5-43.5-56.4-46.1   c-26.3-2.5-52.7-4.3-79.2-5.3c-15-0.6-30-0.2-44.9-0.8C599.6,496.2,593.6,496.4,587.9,494z" fill="#801917"/><path d="M1033,602c-9.1-4.2-17.1-10.1-25.5-15.4c-47.2-29.7-94.3-59.7-141.4-89.6c-42.6-27-85.3-54-128-81   c-12.8-8.1-25.6-16-38.3-24.3c-3.7-2.4-3.9-0.9-3.9,2.4c0.1,21.5,0,43,0,64.5c0,0.8-0.1,1.7-0.2,2.5c-2.7-1-2.3-3.5-2.3-5.5   c-0.1-20.5-0.1-41,0-61.5c0-2.3-0.1-4.8,2.4-6.1c5.1-3.8,9.2-8.7,13.7-13.1c11.3-11.1,22.2-22.5,33.6-33.5   c50.2-48.2,98.6-98.2,148.1-147.1c0.8-0.8,1.7-1.5,2.6-2.3c11.3,10.1,21,21.7,30.6,33.4c49,59.9,82.5,127.5,100,202.9   c5.2,22.3,8.7,44.9,10.7,67.7c2.5,27.3,2.5,54.5,0.7,81.8C1035.3,585.9,1035,594.1,1033,602z" fill="#B32421"/><path d="M293.9,809.9c-2.3,3.2-0.2,6.5,0.3,9.6c3.4,22.9,7.2,45.7,10.7,68.6c3.8,25,7.5,50,11.3,75   c1.1,7.5,2.6,15,3.9,22.5c-46.8-23.3-88.8-53.2-126.3-89.6c-1.3-1.3-2.5-2.6-3.7-4c6.3-6.4,12.4-13,18.8-19.3   c26.6-26.3,53.4-52.5,80-78.8C292.3,798.7,293.9,804.1,293.9,809.9z" fill="#B32421"/><path d="M293.9,809.9c-1.7-5.3-3.4-10.6-5-15.9c-0.2-1.7-0.4-3.3-0.7-5c2.4-0.5,4-2.3,5.6-4   c18.6-18.6,37.2-37.2,55.8-55.8c1.3-1.3,2.5-2.7,4-3.7c1.8-1.3,3.1-0.9,3.6,1.3c0.5,16.9,0.1,33.9,0.2,50.8c0,2.1-0.6,4.4,1.6,6   c8.8,1.5,17.6,0.5,26.4,0.6c2,0,3-1.2,3.1-3.2c0-0.7,0-1.3,0-2c0-28.8,0-57.5,0-86.3c-0.1-32.7-0.1-65.4,0-98.1   c0-2.3-0.2-4.7,1.6-6.6c2.8,0.1,2.2,2.4,2.4,3.9c0.3,2.8,0.1,5.7,0.1,8.5c0,26.7,0,53.3,0,80c0,1.5-0.3,3,0.4,4.8   c3.1-2.4,6-4.7,8.7-7.4c8.1-8.1,16.2-16.3,24.4-24.3c3.2-3.1,4.7-6.6,4.5-11.1c-0.2-7.7-0.2-15.3,0.1-23c0.1-1.6-0.8-4.6,2.9-3.9   c1.3,2.5,1,5.2,1,7.8c0,8.8,0.1,17.6-0.1,26.3c0.1,33.3,0,66.6,0,100c0,5.7,0.4,11.3,0.9,16.9c1.7,17.8,12.6,22.7,29,18.7   c6.6-1.6,12-5.6,16.9-10.3c2.2-2.1,4.1-4.4,6.5-6.2c3.1-2.2,4.8-1.5,5.4,2.4c0.5,3,0.3,6,0.2,9c-0.1,2.9,0.9,4.3,4,4.3   c6.2-0.1,12.3,0,18.5,0c3.2,0,4.5-1.6,4.4-4.7c0-1.2,0-2.3,0-3.5c0-50.8,0-101.6,0-152.5c0-1.3,0-2.7,0-4c0-2.9-1.4-4.2-4.3-4.2   c-6,0-12,0-18,0c-3.4,0-4.7,1.5-4.6,4.9c0.1,4.7,0,9.3,0,14c0,34.5,0,69,0,103.5c0,10.1-8.8,21.3-18.7,23.8   c-6.7,1.7-11-1.8-12.3-10c0-42,0-84.1,0-126.1c0-2.3-0.2-4.7,0.2-7c0.5-2.4,2.3-4,3.9-5.6c31.7-31.7,63.2-63.5,95.1-95   c7.2-7.1,14.8-13.9,22-21.3c-2.1-0.8-4.1-0.4-6-0.4c-31.3,0-62.6,0-93.9-0.1c-2.4,0-5.1,0.7-7-1.5c2-0.2,3.9-0.5,5.9-0.5   c33.4-0.1,66.8-0.1,100.3-0.2c1.7,0,3.3-0.1,5-0.1c5.2,0.2,10.3,0.6,15.5,0.6c35.7,0.2,71.3,1.5,106.8,4.6c10.9,0.9,22,1,32.6,4.3   c26.7,8.4,41.7,27.2,47.1,54.2c4.3,21.6,5.9,43.5,7.2,65.4c1.4,23.6,2.4,47.3,1.4,70.9c-1.4,34.7-1.9,69.6-10.3,103.7   c-7,28.4-29.8,47.4-58.9,50.3c-78.4,7.8-157,8.2-235.7,7.3c-33.8-0.4-67.6-1.3-101.4-3.6c-15.8-1.1-31.6-2.2-47.3-4.2   c-21.7-2.8-37.8-14.5-48.8-33.3C295.4,812.9,294.6,811.4,293.9,809.9z" fill="#DCDCDC"/><path d="M356,725c-6.4,6.3-12.9,12.5-19.2,18.8c-14.7,14.7-29.4,29.4-44.2,44.1c-1.1,1.1-2.1,4.1-4.4,1.1   c-3.4-14.8-4.6-29.9-6-45c-3.3-35.6-2.5-71.2-1.7-106.8c0.6-28.6,2.8-57.2,9.5-85.2c7-29.2,30.5-48.4,60.3-51.2   c40.3-3.8,80.7-5.8,121.2-6.2c1.8,0,3.7,0.1,5.5,0.1c7.2,0.1,14.3,0.2,21.5,0.2c27.6,0,55.3,0,82.9,0c1.6,0,3.3,0,5,0   c-6.4,6.7-12.6,13.3-18.9,19.8c-1.4,1.4-3.1,2.5-4.5,3.9c-31.4,31.4-62.9,62.8-94.3,94.3c-1.4,1.4-3,2.7-4.4,4   c-3.4-1.7-7.1-1.4-10.7-1.5c-6.8-0.2-13.6,0.6-20.4-0.5c-1.8,5.9-1.3,12-0.6,17.8c1.5,12-2.5,20.8-11.7,28.5   c-10,8.4-18.3,18.8-29.5,27.6c0-34,0-67.4,0-100.8c0.7-3.4,3.6-2.5,5.6-2.6c8-0.2,16,0,24-0.1c5.2-0.1,5.7-0.5,5.8-5.8   c0.1-5.7,0.1-11.3,0-17c-0.1-5.4-0.7-6-6.7-6c-24.2-0.1-48.3,0-72.5,0c-6.7,0-13.3,0.1-20,0c-4.1-0.1-5.7,1.7-5.6,5.7   c0.1,6,0.2,12,0,18c-0.1,3.8,1.2,5.4,5.2,5.2c7.7-0.2,15.3-0.2,23,0c6.7,0.1,7.8,1.2,7.8,8c0.1,41.8,0.1,83.7,0,125.5   C357.6,721,357.8,723.3,356,725z" fill="#FEFEFE"/><path d="M425.8,320.4c2.6-10,5-19,7.3-28c5.1-19.6,10.3-39.2,15.2-58.9c0.9-3.7,2.5-4.6,6.1-4.5   c8.7,0.3,17.3,0.3,26,0c4-0.1,5.1,0.5,3.8,4.8c-10.7,34.6-21.1,69.3-31.6,103.9c-2.8,9.2-5.6,18.5-8.4,27.7c-0.7,2.4-1,4.8-1,7.4   c0.1,28.7,0,57.3,0.1,86c0,3.6-0.6,4.9-4.6,4.8c-8.8-0.3-17.7-0.3-26.5,0c-3.6,0.1-4.4-0.9-4.4-4.4c0.1-27.8,0-55.6,0.1-83.5   c0-13.7-4.4-26.5-8.2-39.4c-10-34.6-22.7-68.4-34.4-102.5c-1.2-3.5-1.4-4.9,3.1-4.7c9.5,0.3,19,0.2,28.5,0c3.3-0.1,4.5,1,5.3,4.2   C409.8,261.9,417.7,290.5,425.8,320.4z" fill="#FEFEFE"/><path d="M485.1,376c0.5-15.5-0.7-31,0.9-46.4c2.4-22.3,16-38,37-42.1c26-5.1,49.1,10.6,53.9,36.7   c1.2,6.7,1.9,13.5,2,20.4c0,21.3,0.1,42.7,0,64c0,7.8-0.8,15.6-2.7,23.2c-5.5,22-22.5,34.7-45.9,34.2   c-21.9-0.5-38.8-14.9-43.1-36.6c-3.2-16-1.6-32.2-2-48.3C485,379.3,485.1,377.7,485.1,376z" fill="#FEFEFE"/><path d="M618,464c-0.3,0-0.6,0.1-0.9,0.1c-8.4-4.3-11.1-12-11.9-20.6c-0.5-5.6-0.9-11.3-0.9-16.9   c-0.1-44.1,0-88.3-0.1-132.4c0-4,0.8-5.5,5.1-5.3c7,0.4,14,0.4,21,0c4.7-0.3,6.1,0.8,6.1,5.8c-0.2,42.6-0.1,85.3-0.1,127.9   c0,2,0,4,0.2,6c0.5,5.2,3,8.3,8.6,8.4c0.7,1.8-0.7,2.8-1.7,3.8c-7.1,7.2-14.3,14.4-21.5,21.5C620.8,463.3,619.7,464.6,618,464z" fill="#FEFEFE"/><path d="M664,289.3c10.4-0.2,20.8-1.1,31.1,0.5c0.5,1.1,0.3,2.3,0.3,3.4c0,30.3,0,60.6,0.1,90.8   c0,3.7-1.5,6.4-3.8,8.8c-7.5,7.6-15,15.1-22.6,22.6c-0.8,0.8-1.7,1.6-2.8,2.1c-1.8,0.9-2.9,0.6-2.8-1.7c0-0.7,0-1.3,0-2   c0-40.4,0-80.9,0-121.3C663.5,291.6,663.2,290.3,664,289.3z" fill="#FEFEFE"/><path d="M664,289.3c0,42.6,0,85.1,0,127.7c0.5,0.4,1,0.8,1.5,1.2c4.2-4.6,8.3-9.3,12.6-13.8   c5.4-5.7,13.1-10.3,15.8-17c2.8-6.9,0.9-15.7,1-23.7c0.1-24.6,0.2-49.3,0.3-73.9c1,1.7,0.5,3.6,0.5,5.4c0.1,31,0.2,61.9,0.2,92.9   c-0.2,1.8-0.5,3.6-0.5,5.4c0,20.9,0,41.9,0,62.8c0,1.6,0.3,3.3,0.4,4.9c-0.2,1.4-0.8,2.5-2.5,2.5c-9.8-0.3-19.7,0.5-29.6-0.5   c-0.6-4.7-0.1-9.4-0.3-14.1c-0.1-1,0.9-2.7-1.3-2.8c-8.2,9-17.2,17-29.7,19.3c-4.9,0.9-9.8,0.9-14.5-1.5c9.4-8.6,18.4-17.6,27-27   c0.3-0.3,0.7-0.6,1-0.8c7.2-4.3,13.7-9.2,17-17.2c0.1-28.1,0.1-56.1,0.2-84.2c0-13.6,0-27.2,0-40.8   C663.2,292.4,662.4,290.6,664,289.3z" fill="#DCDCDC"/><path d="M663,419c0.5,1.7,0.5,3.3-0.7,4.7c-4.5,5.5-8.6,11.3-16.4,12.6C651.1,429.9,657,424.4,663,419z" fill="#811A18"/><path d="M662.2,446.2c1.6,0.2,1.7,0.2,1.7,1.3c0,5.2-0.1,10.4-0.1,15.6c-1.9-3.6-0.4-7.5-0.9-11.2   C662.6,450,663.6,447.9,662.2,446.2z" fill="#AD7474"/><path d="M580.4,769.1c0,5.5-0.2,9.7,0.1,13.7c0.2,2.8-0.8,3.4-3.3,3.3c-7.7-0.1-15.3-0.2-23,0   c-3.5,0.1-4.4-0.9-4.4-4.4c0.2-21.3,0.1-42.6,0.1-64c0-52.3,0.1-104.6-0.1-156.9c0-4.7,1.3-5.9,5.8-5.7c6.6,0.4,13.3,0.3,20,0   c3.7-0.2,5.1,0.5,5,4.8c-0.3,22.8-0.2,45.6-0.2,68.5c0,0.4,0.2,0.9,0.2,1.3c1.9,0.3,2.3-1.3,3.1-2.2c4.2-4.5,8.7-8.7,14.3-11.5   c19.3-9.8,37.6-0.6,41,20.6c1.2,7.7,1.9,15.5,1.9,23.4c0.1,26.8,0.1,53.6,0,80.5c-0.1,9.1-0.6,18.3-2.7,27.3   c-4.1,17.1-19.3,25-35.8,18.7C593.6,783.2,587.2,777,580.4,769.1z" fill="#B32421"/><path d="M666,699.5c0-13-0.4-26,0.1-39c0.4-11.9,2.7-23.6,11-33c13.6-15.3,30.9-18.3,49.7-13.3   c17.5,4.7,27,17.5,30.1,35c3.2,17.8,1.5,35.9,1.9,53.9c0.1,3.3-2.3,2.6-4.1,2.6c-17.8,0-35.7,0.1-53.5-0.1c-3.8,0-5.3,0.8-5.1,4.9   c0.6,11.8-0.9,23.7,1,35.4c1,6.2,3.6,11.5,10,13.8c10.2,3.6,19.2-3,19.8-14.5c0.3-5,0.3-10,0.2-15c-0.1-2.6,0.7-3.4,3.4-3.4   c8.3,0.1,16.7,0.1,25,0c1.7,0,3.4-0.2,3.3,2.4c-0.2,8.8,0.3,17.7-1.8,26.4c-4.6,19-19.9,31.3-39.4,32.5c-16,1-30.1-2.9-40.7-15.7   c-7.8-9.4-10.4-20.8-10.8-32.6C665.6,726.5,666,713,666,699.5z" fill="#B32421"/><path d="M463.7,751.9c1.8,8.7,7,11.1,14.9,6.7c5-2.8,8.7-7.2,12.1-11.7c1.2-1.6,0.9-3.5,0.9-5.3   c0-41,0.1-81.9-0.1-122.9c0-3.9,1.1-4.7,4.7-4.6c7,0.3,14,0.3,21,0c3.8-0.2,5,0.8,5,4.8c-0.2,22.8-0.1,45.6-0.1,68.4   c0,31-0.1,62,0.1,92.9c0,5-1.4,6.1-6.1,5.8c-6.8-0.4-13.7-0.2-20.5,0c-3,0.1-4.5-0.4-4.2-4c0.4-4.6,0.1-9.2-0.9-14.4   c-1.8,2-3.6,4.1-5.5,6c-9.1,8.7-19,15.7-32.6,14.5c-9.1-0.8-15.3-5.6-17.3-14.6c-1.1-4.7-1.9-9.5-1.9-14.3   c-0.2-36.5-0.1-72.9-0.1-109.4c1-2.3,2.5-4.3,4.3-6.1c6.5-6.4,13-12.9,19.4-19.4c0.9-0.9,1.9-1.9,3-2.7c2.1-1.4,3.8-1.7,3.6,1.7   c0,1.2,0,2.3,0,3.5c0,39.8,0,79.6,0,119.3C463.5,748.2,463.3,750.1,463.7,751.9z" fill="#B32421"/><path d="M356,725c0.1-6.8,0.2-13.6,0.2-20.5c0-37.3-0.1-74.6,0.1-111.9c0-4.5-1.2-5.6-5.6-5.4   c-9.1,0.3-18.3,0-27.5,0.2c-2.7,0.1-3.8-0.5-3.7-3.5c0.2-8.3,0.1-16.6,0-25c0-2.6,0.4-3.8,3.5-3.8c33.8,0.1,67.6,0.1,101.4,0   c2.5,0,3.6,0.5,3.5,3.3c-0.2,8.5-0.2,17,0,25.5c0.1,3.1-1.3,3.5-3.9,3.4c-9.5-0.1-19-0.1-28.5,0c-1.6,0-3.3-0.8-4.7,0.7   c-1.4,1.6-0.6,3.5-0.6,5.3c0,32.4,0,64.8,0,97.2c0,0.8-0.1,1.6-0.2,2.5c-2.8,5.1-7.3,8.5-11.2,12.6c-5.4,5.6-10.9,11.2-16.6,16.5   c-2.9,2.7-4,5.8-4,9.7c0.1,15.8,0.1,31.6,0,47.4c0,2.3,0.4,4.7-1.4,6.6c-1.6-1.3-0.7-3.1-0.7-4.6C356.1,762.4,356,743.7,356,725z" fill="#DC2C28"/><path d="M356.9,785.8c0-18.4,0.1-36.9,0-55.3c0-3.7,1.1-6.2,3.7-8.7c10-9.4,19.1-19.8,29.5-28.9   c0.1,16.3,0.2,32.6,0.3,48.9c0,13.6,0,27.3,0.1,40.9c0,2.1,0.2,3.5-2.6,3.4C377.5,785.9,367.2,785.9,356.9,785.8z" fill="#B32421"/><path d="M463.7,751.9c-1.3-1.8-0.7-3.9-0.7-5.8c0-39.6,0-79.3,0-118.9c0-1.8,0-3.5,0-6.5   c-10.5,10.3-20.2,19.8-29.9,29.2c-0.1-11.7-0.2-23.3-0.3-35c4.8-1.8,9.8-0.5,14.7-0.8c4.3-0.2,8.7,0,13-0.1   c2.2-0.1,3.6,0.3,3.5,2.9c-0.1,12-0.2,24-0.2,36C463.8,685.9,463.8,718.9,463.7,751.9z" fill="#DC2C28"/><path d="M517,373.6c0.7-12.6-1.2-28.1,0.9-43.5c1.3-9.7,6.1-14.3,14.2-14.3c5.9,0,9.8,2.8,12,8   c2.2,5,2.6,10.3,2.6,15.7c0.1,24.5,0.1,49,0,73.5c0,4.8-0.4,9.7-2,14.3c-2.3,6.4-6.9,9.7-13.1,9.6c-6.1-0.1-10.4-3.3-12.6-9.6   c-1.6-4.6-2.1-9.4-2.1-14.3C517,400.8,517,388.7,517,373.6z" fill="#DC2C28"/><path d="M580.4,699.9c0-15,0-30,0-45c0-8.4,4.7-13.7,13.1-14.9c7.1-1,11.8,1.8,14.5,8.5c1.7,4.4,2.2,9,2.2,13.7   c0,25.3,0,50.6,0,75.9c0,4.7-0.4,9.3-2.1,13.7c-2.8,7.1-8.7,10-16,8c-8.5-2.3-11.5-6.3-11.5-15.1   C580.4,729.9,580.4,714.9,580.4,699.9z" fill="#DCDCDC"/><path d="M710.9,680.1c-4.2-0.5-10.8,2.2-14-1.1c-2.9-3-0.7-9.5-0.8-14.4c-0.1-5.3,0.4-10.6,2.5-15.6   c2.8-6.5,6.9-9.1,13.9-9c6.3,0.1,10.7,3.3,13.1,9.5c2.4,6.4,2.2,13,2.2,19.7c0,10.9,0,10.9-10.7,10.9   C715.4,680.1,713.6,680.1,710.9,680.1z" fill="#DCDCDC"/></g></svg>